# xmcd CD database file
#
# Track frame offsets:
#	150
#	23009
#	47943
#	62965
#	76878
#	91851
#	108642
#	127478
#	149515
#	172631
#	191610
#	206480
#	225257
#	240265
#
# Disc length: 3514 seconds
#
# Revision: 0
# Processed by: cddbd v1.5.1PL2 Copyright (c) Steve Scherf et al.
# Submitted via: CDex 1.51
#
DISCID=b70db80e
DTITLE=Renato Sellani Trio - A Bruno Lauzi
DYEAR=2004
DGENRE=Jazz
TTITLE0=Tuo Padre Cantava Jazz
TTITLE1=L'appuntamento
TTITLE2=Il Poeta
TTITLE3=Poi Sei Venuta Tu
TTITLE4=Margherita
TTITLE5=Domani Ti Diranno
TTITLE6=Se Tu Sapessi
TTITLE7=Garibaldi Blues
TTITLE8=Anche Lei Lo Sa
TTITLE9=Ti Ruberò
TTITLE10=Una Storia
TTITLE11=Ritornerai
TTITLE12=Il Tuo Amore
TTITLE13=D.A.I.
EXTD=YEAR: 2004
EXTT0=
EXTT1=
EXTT2=
EXTT3=
EXTT4=
EXTT5=
EXTT6=
EXTT7=
EXTT8=
EXTT9=
EXTT10=
EXTT11=
EXTT12=
EXTT13=
PLAYORDER=
